<?xml version="1.0" encoding="utf-8"?>
<!-- Generator: Adobe Illustrator 28.3.0, SVG Export Plug-In . SVG Version: 6.00 Build 0)  -->
<svg version="1.1" id="Capa_1" xmlns="http://www.w3.org/2000/svg" xmlns:xlink="http://www.w3.org/1999/xlink" x="0px" y="0px"
	 viewBox="0 0 31.9 32" style="enable-background:new 0 0 31.9 32;" xml:space="preserve">
<style type="text/css">
	.st0{fill:#BEA760;}
	.st1{fill:url(#SVGID_1_);}
	.st2{fill:url(#SVGID_00000088127390656551276160000004629759844311951234_);}
	.st3{fill:#FFF6DC;fill-opacity:0.4;}
	.st4{fill:#BEA760;fill-opacity:0.4;}
	.st5{fill:#FFFFFF;}
</style>
<path class="st0" d="M27.8,31.4H4c-2.2,0-4-1.8-4-4V4.7c0-2.2,1.8-4,4-4h23.8c2.2,0,4,1.8,4,4v22.7C31.9,29.6,30.1,31.4,27.8,31.4z"
	/>
<linearGradient id="SVGID_1_" gradientUnits="userSpaceOnUse" x1="-707.7092" y1="741.1368" x2="-707.1246" y2="740.4292" gradientTransform="matrix(31.8754 0 0 -28.4068 22631.7031 21058.4941)">
	<stop  offset="0" style="stop-color:#41D1FF"/>
	<stop  offset="1" style="stop-color:#BD34FE"/>
</linearGradient>
<path class="st1" d="M97.7,9.8l-15,26.8c-0.3,0.6-1.1,0.6-1.4,0L66,9.8c-0.3-0.6,0.2-1.3,0.9-1.2l15,2.7c0.1,0,0.2,0,0.3,0l14.7-2.7
	C97.5,8.5,98,9.2,97.7,9.8z"/>
<linearGradient id="SVGID_00000141432187349987513260000001639894823838462593_" gradientUnits="userSpaceOnUse" x1="-677.8748" y1="739.2813" x2="-677.8054" y2="738.4134" gradientTransform="matrix(14.6164 0 0 -26.6459 9991.7861 19704.377)">
	<stop  offset="0" style="stop-color:#FFEA83"/>
	<stop  offset="8.333001e-02" style="stop-color:#FFDD35"/>
	<stop  offset="1" style="stop-color:#FFA800"/>
</linearGradient>
<path style="fill:url(#SVGID_00000141432187349987513260000001639894823838462593_);" d="M89,5.1L77.9,7.2c-0.2,0-0.3,0.2-0.3,0.4
	l-0.7,11.5c0,0.2,0.2,0.4,0.4,0.4c0,0,0.1,0,0.1,0l3.1-0.7c0.3-0.1,0.5,0.2,0.5,0.5L80,23.8c-0.1,0.3,0.2,0.6,0.5,0.5l1.9-0.6
	c0.3-0.1,0.6,0.2,0.5,0.5l-1.5,7.1c-0.1,0.4,0.5,0.7,0.7,0.3l0.2-0.3l9-18c0.2-0.3-0.1-0.6-0.4-0.6l-3.2,0.6
	c-0.3,0.1-0.6-0.2-0.5-0.5l2.1-7.2C89.5,5.3,89.3,5,89,5.1L89,5.1z"/>
<g>
	<path class="st3" d="M30.1,22.5c-0.3,0.6-0.6,1.1-1,1.5l0,0.3h-0.4c-0.1,0.1-0.2,0.1-0.3,0.2c-0.7,0.4-1.6,0.5-2.8,0.5h-3
		c-0.6,0-1-0.2-1.1-0.7h-2.3c0,0,0,0,0,0c-0.1,0.4-0.4,0.6-0.8,0.8v0.3h11.8l0.2-2.9L30.1,22.5z"/>
	<path class="st3" d="M20.4,22.8c0,0.8,0.4,1.1,1.1,1.1c0,0,0,0,0,0v-13c0-1.1,0.1-1.8,0.2-2.1c0.1-0.4,0.4-0.6,0.8-0.8V7.7h-1.9
		c-0.1,0.4-0.2,1.1-0.2,2.1V22.8z"/>
	<path class="st4" d="M14.3,16L14.3,16c0,0.1,0,0.2,0.1,0.2l0.1,0.1c0,0.1,0.1,0.1,0.1,0.2l0-0.1C14.4,16.3,14.3,16.2,14.3,16z"/>
	<path class="st3" d="M10.4,21.9l0.3-0.9L6.7,10.6C6.3,9.7,6.1,9,6.1,8.7C6,8.3,6.2,8.1,6.5,8V7.7H5C5,8,5.3,8.6,5.6,9.5L10.4,21.9z
		"/>
	<path class="st3" d="M16.3,8.1c0.2,0.1,0.4,0.3,0.4,0.7c0.1,0.4-0.1,1.1-0.4,1.9l-1.3,3.3c0.1,0,0.1,0,0.2,0c0.1,0,0.1,0,0.2,0
		l1.3-3.3c0.4-1,0.7-1.6,1-1.9c0.1-0.1,0.3-0.3,0.4-0.4c0-0.3-0.1-0.5-0.1-0.7h-1.5C16.5,7.8,16.4,7.9,16.3,8.1z"/>
	<path class="st3" d="M13.1,19.1l-1.5,3.9L11,21.6l-1,2.6h0l0.4,1.1h0.7l2.3-6c0,0,0,0,0,0C13.2,19.3,13.1,19.2,13.1,19.1z"/>
	<path class="st4" d="M13.3,18.5L13.3,18.5c0.1,0.2,0.2,0.3,0.3,0.4l0,0C13.5,18.8,13.4,18.7,13.3,18.5z"/>
	<path class="st3" d="M14.1,16.9c-0.1,0-0.1,0.1-0.2,0.1l-0.3,0.8c0,0.2,0,0.3,0.1,0.4c0,0.1,0.1,0.1,0.1,0.1l0.5-1.2
		C14.2,17,14.1,16.9,14.1,16.9z"/>
	<path class="st3" d="M15.1,14.6c-0.1,0-0.2,0-0.3,0l-0.3,0.7c0,0.1,0.1,0.2,0.1,0.3c0,0.1,0.1,0.1,0.1,0.2l0.5-1.2
		C15.2,14.6,15.1,14.6,15.1,14.6z"/>
	<path class="st4" d="M2.6,8C2.6,8,2.7,8,2.6,8C2.7,8,2.6,8,2.6,8L2.6,8z"/>
	<path class="st5" d="M28.7,24.3h0.4l0-0.3l0.2-2.6l-0.3,0c-0.4,0.9-1,1.6-1.6,2c-0.7,0.4-1.6,0.5-2.8,0.5h-3c0,0,0,0,0,0
		c-0.7,0-1.1-0.4-1.1-1.1v-13c0-1,0.1-1.7,0.2-2.1c0,0,0,0,0,0C20.7,7.2,21,7,21.4,6.9V6.5h-4.1v0h0.4v0.3c-0.1,0-0.1,0.1-0.2,0.1
		c0.3,0.1,0.5,0.4,0.6,0.7c0,0,0,0,0,0c0.1,0.2,0.1,0.4,0.1,0.7c0,0.4,0.1,0.9,0.1,1.4v6.5h0.8L18.9,17h-0.3c0,0,0,0,0,0
		c0.2,0.2,0.2,0.5,0.2,0.8c0,0.2-0.1,0.5-0.2,0.7c-0.1,0.2-0.2,0.4-0.4,0.6v2.1c0,1-0.1,1.7-0.2,2.1c-0.1,0.4-0.4,0.6-0.8,0.8v0.3
		h1.9h2.3H28.7z"/>
	<path class="st5" d="M11,21.6l2.5-6.5c0-0.1,0.1-0.3,0.1-0.4c0,0,0,0,0,0l2-5.2c0.2-0.6,0.4-1.1,0.7-1.4c0.1-0.2,0.2-0.3,0.3-0.4
		c0,0,0.1-0.1,0.1-0.1C17,7.3,17.2,7.1,17.5,7c0.1,0,0.1-0.1,0.2-0.1V6.6h-0.4h-2.4v0.3c0.4,0.1,0.7,0.3,0.7,0.8
		c0.1,0.4-0.1,1.1-0.4,1.9l-4.4,11.5l-0.3,0.9L5.6,9.5C5.3,8.6,5,8,5,7.7c0,0,0-0.1,0-0.1C4.9,7.2,5.1,7,5.4,6.9V6.6H1.5v0.3
		C1.8,7,2.1,7.2,2.4,7.6c0.1,0.1,0.2,0.2,0.2,0.3C2.6,8,2.7,8,2.7,8c0.2,0.4,0.4,0.9,0.7,1.5l5.9,14.7h0.7h0L11,21.6z"/>
	<path class="st5" d="M17.2,19.3c-0.1,0-0.2,0-0.4-0.1c-0.2-0.1-0.3-0.2-0.5-0.4c-0.2-0.2-0.4-0.3-0.6-0.5c-0.2,0.3-0.4,0.6-0.6,0.8
		c-0.2,0.2-0.5,0.3-0.8,0.3c-0.3,0-0.5-0.1-0.7-0.2c-0.2-0.1-0.4-0.3-0.5-0.5c-0.1-0.2-0.2-0.4-0.2-0.7c0-0.3,0.1-0.6,0.3-0.9
		c0.2-0.3,0.5-0.5,1-0.6c-0.1-0.2-0.2-0.4-0.3-0.5c-0.1-0.2-0.1-0.3-0.1-0.5c0-0.2,0.1-0.4,0.2-0.5c0.1-0.2,0.3-0.3,0.5-0.5
		c0.2-0.1,0.5-0.2,0.9-0.2c0.1,0,0.3,0,0.5,0c0.2,0,0.4,0.1,0.5,0.2l0.1,0.8l-0.1,0c-0.1-0.3-0.2-0.5-0.4-0.6
		c-0.1-0.1-0.3-0.2-0.4-0.3c-0.1,0-0.3-0.1-0.4-0.1c-0.2,0-0.4,0-0.5,0.1c-0.1,0.1-0.2,0.2-0.3,0.3c-0.1,0.1-0.1,0.2-0.1,0.3
		c0,0.2,0.1,0.4,0.2,0.6c0.1,0.2,0.3,0.5,0.4,0.7c0.2,0.2,0.3,0.4,0.5,0.6c0.2,0.2,0.4,0.5,0.7,0.7c0.2,0.2,0.4,0.4,0.7,0.6
		c0.2,0.2,0.4,0.3,0.6,0.4c0.2,0.1,0.3,0.2,0.4,0.2c0.1,0,0.2-0.1,0.3-0.2c0.1-0.1,0.1-0.3,0.1-0.4c0-0.2,0-0.4,0-0.5
		c0-0.1,0-0.3-0.1-0.5c0-0.2-0.1-0.3-0.1-0.5c-0.1-0.1-0.1-0.2-0.2-0.2h-1.6l0-0.1h2.6l0,0.1h-0.8c0.2,0.1,0.4,0.2,0.5,0.4
		c0.1,0.2,0.2,0.4,0.2,0.6c0,0.2,0,0.4-0.1,0.6c-0.1,0.2-0.2,0.4-0.3,0.5c-0.1,0.2-0.3,0.3-0.4,0.4C17.5,19.3,17.3,19.3,17.2,19.3z
		 M13.3,17.7c0,0.2,0,0.4,0.1,0.6c0.1,0.2,0.2,0.4,0.4,0.5c0.2,0.1,0.4,0.2,0.6,0.2c0.2,0,0.4-0.1,0.6-0.2c0.2-0.1,0.4-0.3,0.5-0.5
		c-0.1-0.1-0.2-0.3-0.4-0.4c-0.1-0.1-0.2-0.3-0.3-0.4c-0.1-0.2-0.3-0.3-0.4-0.5c-0.1-0.2-0.2-0.3-0.3-0.5c-0.3,0.1-0.5,0.3-0.7,0.5
		C13.4,17.2,13.3,17.5,13.3,17.7z"/>
</g>
</svg>
