<?xml version="1.0" encoding="utf-8"?>
<!-- Generator: Adobe Illustrator 28.3.0, SVG Export Plug-In . SVG Version: 6.00 Build 0)  -->
<svg version="1.1" id="Capa_1" xmlns="http://www.w3.org/2000/svg" xmlns:xlink="http://www.w3.org/1999/xlink" x="0px" y="0px"
	 viewBox="0 0 500 500" style="enable-background:new 0 0 500 500;" xml:space="preserve">
<style type="text/css">
	.st0{fill:#BEA760;fill-opacity:0.4;}
	.st1{fill:#BEA760;}
</style>
<g>
	<path class="st0" d="M493.1,362.7c-4.9,10.7-10.7,19.1-17.2,25.5l-0.3,5.4h-6.1c-1.5,1.1-3,2-4.6,2.9c-11.2,6.3-27.3,9.4-48.2,9.4
		h-51.9c-10.3,0-16.6-4.1-18.7-12.3h-40.2c-0.1,0.2-0.1,0.4-0.2,0.6c-2.5,6.7-7.1,11-13.8,13v5.7h203l3-49.3L493.1,362.7z"/>
	<path class="st0" d="M325.9,367c0,13,6.4,19.5,19.3,19.6c0-0.1,0-0.2,0-0.3V162.8c0-18,1.2-30.3,3.7-36.9
		c2.5-6.6,7.1-10.9,13.8-12.9v-5.6h-33.3c-2.3,6.7-3.4,18.7-3.4,36.1V367z"/>
	<path class="st0" d="M221,251l-0.4,1.1c0.4,0.8,0.9,1.7,1.4,2.5l1.4,2.1c0.6,0.9,1.2,1.8,1.8,2.7l0.5-1.2
		C223.9,255.8,222.3,253.4,221,251z"/>
	<path class="st0" d="M155.5,352.6l5.8-15L91.4,158.3c-6.4-16.4-10.1-27.5-11.1-33.4c-1-5.9,1.7-9.8,8-11.9v-5.6H61.6
		c1.3,6.2,4.9,16.8,10.8,31.8L155.5,352.6z"/>
	<path class="st0" d="M256.4,115c4,2.2,6.3,6,6.9,11.2c0.9,7.3-1.4,18.2-6.8,32.6L235,214.6c1.2-0.1,2.4-0.1,3.7-0.1
		c1.2,0,2.4,0.1,3.7,0.2l21.8-56.4c6.3-16.4,12.3-27.5,17.9-33.4c2.3-2.4,4.6-4.5,6.9-6.2c-0.6-4.7-1.3-8.4-2.3-11.3h-25
		C259.9,109.5,258.2,112,256.4,115z"/>
	<path class="st0" d="M200.4,304.5l-25.8,67.1l-9.7-24.9l-17.6,45.5h-0.6l7.6,19h12.1L206,308.8c-0.1-0.1-0.2-0.1-0.4-0.2
		C203.7,307.4,202,306.1,200.4,304.5z"/>
	<path class="st0" d="M204.5,293.9l-0.3,0.7c1.4,2.1,3.1,3.9,5.2,5.3l0-0.1C207.5,298.1,205.8,296.1,204.5,293.9z"/>
	<path class="st0" d="M217.8,265.1c-1.2,0.6-2.1,1.3-3,2l-5,12.9c0.1,2.6,0.7,5.2,1.9,7.7c0.4,0.9,0.9,1.7,1.5,2.4l8-20.6
		C219.9,268.1,218.8,266.6,217.8,265.1z"/>
	<path class="st0" d="M235,226.1c-1.9,0-3.5,0.3-4.8,0.8l-4.5,11.8c0.4,1.6,1,3.2,1.9,5c0.6,1.3,1.4,2.5,2.1,3.8l8.2-21.2
		C236.9,226.2,235.9,226.1,235,226.1z"/>
	<path class="st0" d="M21.1,113c0.4,0.2,0.9,0.4,1.3,0.7c-0.5-0.8-0.9-1.5-1.3-2.2V113z"/>
	<path class="st1" d="M469.5,393.6h6.1l0.3-5.4l2.7-43.9l-4.8-0.8c-7.5,16.3-16.9,27.5-28.2,33.8c-11.2,6.3-27.3,9.4-48.2,9.4h-51.9
		c-0.1,0-0.2,0-0.3,0c-12.9-0.1-19.3-6.6-19.3-19.6V143.5c0-17.4,1.1-29.4,3.4-36.1c0.1-0.2,0.2-0.5,0.3-0.7
		c2.5-6.6,7.1-10.9,13.8-12.9v-5.6h-70.7v0.3h7.4V94c-1.1,0.4-2.2,0.9-3.4,1.4c4.5,2.4,7.8,6.1,9.7,11.2c0.1,0.2,0.2,0.5,0.3,0.8
		c1,2.8,1.7,6.6,2.3,11.3c0.8,6.5,1.2,14.8,1.2,24.8v112.3h14.4l-3.9,11h-5.5c0,0.1,0.1,0.1,0.1,0.2c2.6,4.1,3.9,8.5,3.9,13.3
		c0,4.1-0.9,8.1-2.6,12c-1.6,3.7-3.8,7-6.5,10v35.9c0,17.8-1.2,30-3.7,36.7c-2.5,6.7-7.1,11-13.8,13v5.7h33.3H346H469.5z"/>
	<path class="st1" d="M164.9,346.8L208.1,235c0.5-2.2,1.4-4.4,2.6-6.7c0,0,0,0,0-0.1l34.4-89c3.9-10.1,7.6-18.1,11.2-24.2
		c1.8-3,3.5-5.5,5.2-7.6c0.5-0.6,0.9-1.1,1.4-1.6c4.5-4.7,9-8.2,13.6-10.4c1.1-0.5,2.2-1,3.4-1.4v-5.6h-7.4h-40.8V94
		c7.5,1.4,11.6,5.8,12.5,13.2c0.9,7.3-1.4,18.2-6.8,32.6l-76.1,197.9l-5.8,15L72.4,139.2c-5.8-15-9.4-25.6-10.8-31.8
		c-0.1-0.6-0.2-1.1-0.3-1.6c-1-5.9,1.7-9.8,8-11.9v-5.6H2.1V94c4.6,2,9.5,6,14.8,11.9c1.4,1.5,2.8,3.4,4.3,5.7
		c0.4,0.7,0.9,1.4,1.3,2.2c3.8,6.2,7.7,14.8,11.9,25.5l100.8,253h11.5h0.6L164.9,346.8z"/>
	<path class="st1" d="M270.9,307.6c-1.9,0-4.2-0.8-7-2.2c-2.8-1.5-5.7-3.6-8.8-6.2c-3.1-2.6-6.3-5.5-9.5-8.6c-3,5.7-6.6,10-10.9,13
		c-4.3,3-8.9,4.5-13.9,4.5c-4.8,0-9-1.1-12.7-3.3c-3.7-2.3-6.5-5.2-8.5-8.8c-2-3.6-3-7.6-3-11.9c0-5.5,1.8-10.6,5.4-15.2
		c3.6-4.6,9.1-8.2,16.6-10.8c-1.9-3.1-3.4-6.2-4.6-9.2c-1.1-3-1.7-5.9-1.7-8.9c0-3,0.9-6.2,2.6-9.4c1.7-3.2,4.5-5.9,8.4-8.1
		c3.9-2.2,9.1-3.3,15.5-3.3c2.3,0,5.1,0.3,8.3,0.8c3.2,0.5,6.1,1.5,8.8,3.1l1.4,14.4l-1.1,0.2c-2-4.6-4.2-8.1-6.6-10.4
		c-2.4-2.3-4.8-3.8-7.3-4.6c-2.5-0.8-4.9-1.2-7.3-1.2c-3.4,0-6.2,0.7-8.3,2.2c-2.1,1.4-3.7,3.1-4.7,5.2c-1,2.1-1.5,4.1-1.5,6
		c0,3.4,1,7.1,2.9,11c2,3.9,4.5,7.8,7.4,11.7c3,3.8,5.9,7.5,8.8,10.9c3.6,4.2,7.4,8.3,11.2,12.3c3.9,4,7.7,7.6,11.3,10.8
		c3.6,3.2,6.9,5.7,9.9,7.6c3,1.9,5.5,2.8,7.4,2.8c2,0,3.5-0.9,4.5-2.8c1-1.9,1.7-4.3,2.1-7.3c0.3-3,0.5-6.1,0.5-9.3
		c0-2.5-0.3-5.2-0.9-8.2c-0.6-3-1.4-5.6-2.5-8c-1-2.3-2.1-3.7-3.4-4.2h-27.2l0.6-1.8h44.7l-0.6,1.8h-14.4c3.5,1.6,6.3,4,8.4,7.3
		c2.1,3.3,3.2,6.9,3.2,10.8c0,3.5-0.7,6.9-2.2,10.2c-1.4,3.2-3.3,6.2-5.7,8.8c-2.4,2.6-4.9,4.6-7.6,6.1
		C276.2,306.8,273.6,307.6,270.9,307.6z M205.1,279.5c0,3.5,0.8,7,2.4,10.3c1.6,3.3,4,6.1,7.1,8.2c3.1,2.2,6.8,3.2,11.2,3.2
		c3.2,0,6.5-1,9.9-3.1c3.4-2,6.3-5,8.6-8.9c-2.2-2.2-4.3-4.4-6.4-6.8c-2.1-2.3-4.1-4.7-6-7c-2.4-2.9-4.7-5.6-6.8-8.3
		c-2.1-2.7-4-5.3-5.6-7.9c-5.5,2.2-9.3,5.1-11.3,8.8C206.1,271.8,205.1,275.6,205.1,279.5z"/>
</g>
</svg>
